<svg xmlns="http://www.w3.org/2000/svg" width="16" height="14" viewBox="0 0 16 14">
  <path id="heart_3_" data-name="heart (3)" d="M8,48.594a.464.464,0,0,1-.234-.064,27.993,27.993,0,0,1-3.848-2.8A15.986,15.986,0,0,1,1.25,42.836,6.148,6.148,0,0,1,0,39.365a5.045,5.045,0,0,1,1.264-3.356,4.121,4.121,0,0,1,3.084-1.414A4.271,4.271,0,0,1,8,36.786a4.271,4.271,0,0,1,3.653-2.192,4.142,4.142,0,0,1,2.964,1.276A4.971,4.971,0,0,1,16,39.371a6.266,6.266,0,0,1-1.273,3.466,16.193,16.193,0,0,1-2.665,2.892,28.091,28.091,0,0,1-3.827,2.8A.465.465,0,0,1,8,48.594Z" transform="translate(0 -34.594)" fill="#ddb892"/>
</svg>
