<svg xmlns="http://www.w3.org/2000/svg" width="51" height="33" viewBox="0 0 51 33">
  <g id="Amex" transform="translate(-901.5 -2363)">
    <rect id="Rectangle_3192" data-name="Rectangle 3192" width="50" height="32" rx="4" transform="translate(902 2363.5)" fill="#fff" stroke="#f7f7f7" stroke-width="1"/>
    <path id="Path_695" data-name="Path 695" d="M34.183,16.5H31.867L30,18.5l-1.829-2H20.92v6.667h7.105l1.947-2.107,1.895,2.107h2.316l-3.039-3.333Zm-7.895,6v-.867H22.617V20.58h3.671V19.073H22.617V18.02h3.671v-1l2.539,2.813Z" transform="translate(908.606 2360.333)" fill="#3372cd"/>
    <path id="Path_694" data-name="Path 694" d="M22.342,16.5h-.868l-1.961,4.253L17.526,16.5H14.895v5.64L12.368,16.5h-2.5L7,23.167H8.961l.592-1.48h3.079l.632,1.48h3.276V18.353l2.2,4.813h1.592l2.013-4.413v4.413h1.763V16.5ZM10.171,20.167l.882-2.213.934,2.213Z" transform="translate(904.211 2360.333)" fill="#3372cd"/>
  </g>
</svg>
