<svg xmlns="http://www.w3.org/2000/svg" width="51" height="33" viewBox="0 0 51 33">
  <g id="Giropay" transform="translate(-1471.218 -806.307)">
    <rect id="Rectangle_3200" data-name="Rectangle 3200" width="50" height="32" rx="4" transform="translate(1471.718 806.807)" fill="#fff" stroke="#f7f7f7" stroke-width="1"/>
    <rect id="Rectangle_3274" data-name="Rectangle 3274" width="38" height="16" rx="4" transform="translate(1478.717 814.807)" fill="#193261"/>
    <g id="layer1" transform="translate(1479.704 815.992)">
      <path id="_92186184" d="M28.2,29.791V39.839a1.807,1.807,0,0,0,1.825,1.791H46.7V28H30.025A1.807,1.807,0,0,0,28.2,29.791Zm22.818,4.974c0,.642-.319,1.078-.851,1.078a.947.947,0,0,1-.859-1.027c0-.6.345-1.048.859-1.048A.9.9,0,0,1,51.018,34.764ZM47.9,38.434H49.3V36.253h.017a1.422,1.422,0,0,0,1.289.654,1.926,1.926,0,0,0,1.859-2.172,1.879,1.879,0,0,0-1.744-2.026,1.617,1.617,0,0,0-1.519.818h-.017V32.8h-1.3v5.632Zm6.5-2.894c0-.386.374-.533.851-.533.213,0,.413.013.6.021a.909.909,0,0,1-.868.948C54.643,35.981,54.392,35.821,54.392,35.54Zm2.842,1.275a4.75,4.75,0,0,1-.077-.948v-1.5c0-1.225-.9-1.665-1.94-1.665a4.239,4.239,0,0,0-1.625.285l.026.939a2.65,2.65,0,0,1,1.3-.3c.506,0,.923.147.932.7a4.342,4.342,0,0,0-.655-.055c-.749,0-2.1.147-2.1,1.371,0,.872.719,1.262,1.523,1.262a1.4,1.4,0,0,0,1.289-.726h.017c0,.21.021.415.03.633h1.285Zm.63,1.619a4.09,4.09,0,0,0,.876.092c1.289,0,1.6-.981,2-1.988L62.228,32.8H60.82l-.838,2.621h-.013L59.092,32.8H57.578l1.651,4.11a.709.709,0,0,1-.71.554,1.815,1.815,0,0,1-.557-.084Z" transform="translate(-28.2 -28)" fill="#fff"/>
      <path id="_47303032" d="M76.351,106.149c0-.549.272-1,.8-1a.881.881,0,0,1,.9.948.942.942,0,0,1-.9,1.032C76.725,107.126,76.351,106.773,76.351,106.149Zm3.059-1.975H78.133v.726H78.12a1.592,1.592,0,0,0-1.383-.818c-1.268,0-1.838.893-1.838,2.088a1.817,1.817,0,0,0,1.812,2.021,1.6,1.6,0,0,0,1.37-.688H78.1v.218c0,.784-.438,1.162-1.251,1.162a2.82,2.82,0,0,1-1.378-.331l-.072,1.095a4.753,4.753,0,0,0,1.557.256c1.642,0,2.455-.533,2.455-2.181Zm2.378-1.673H80.379v1.019h1.408Zm-1.408,5.691h1.408v-4.018H80.379Zm5.326-4.064a3.336,3.336,0,0,0-.476-.046,1.255,1.255,0,0,0-1.2.835h-.017v-.738h-1.28V108.2h1.408V106.5c0-.788.37-1.258,1.025-1.258a1.643,1.643,0,0,1,.476.046Zm2.425,3.183c-.651,0-.915-.533-.915-1.124s.264-1.132.915-1.132.915.533.915,1.132S88.777,107.31,88.13,107.31Zm0,.973a2.116,2.116,0,1,0-2.369-2.1A2.124,2.124,0,0,0,88.13,108.283Z" transform="translate(-72.913 -99.376)" fill="#de3123"/>
    </g>
  </g>
</svg>
