<svg xmlns="http://www.w3.org/2000/svg" width="51" height="33" viewBox="0 0 51 33">
  <g id="Klarna" transform="translate(-1372.668 -805.112)">
    <rect id="Rectangle_3200" data-name="Rectangle 3200" width="50" height="32" rx="4" transform="translate(1373.168 805.612)" fill="#fff" stroke="#f7f7f7" stroke-width="1"/>
    <g id="symbols" transform="translate(1381.204 817.236)">
      <g id="Group_1055" data-name="Group 1055" transform="translate(7.545 0.001)">
        <g id="Group_1054" data-name="Group 1054">
          <path id="Path_639" data-name="Path 639" d="M12.526,18.265H11.4c-.282,0-.309.028-.309.3v8.064c0,.225.04.262.27.264.369,0,.738,0,1.108,0,.348,0,.38-.03.38-.36V19.691c0-.375,0-.75,0-1.125C12.846,18.31,12.8,18.266,12.526,18.265Z" transform="translate(-11.089 -18.265)" fill="#030302"/>
        </g>
      </g>
      <g id="Group_1057" data-name="Group 1057">
        <g id="Group_1056" data-name="Group 1056">
          <path id="Path_640" data-name="Path 640" d="M1.591,18.265c-.344,0-.687,0-1.031,0a.507.507,0,0,0-.56.552V26.6c0,.229.032.26.27.26q.525,0,1.05,0c.367,0,.552-.179.552-.531V18.546C1.872,18.319,1.823,18.267,1.591,18.265Z" transform="translate(0 -18.263)" fill="#030302"/>
        </g>
      </g>
      <g id="Group_1059" data-name="Group 1059" transform="translate(2.452 4.615)">
        <g id="Group_1058" data-name="Group 1058">
          <path id="Path_641" data-name="Path 641" d="M7.768,29.086a4.061,4.061,0,0,0-1.16-2.517A4.286,4.286,0,0,0,3.925,25.3c-.325-.006-.328-.006-.319.231a2.247,2.247,0,0,0,.035.26,4.021,4.021,0,0,0,1.736,2.754,4.292,4.292,0,0,0,2.142.756C7.752,29.322,7.791,29.307,7.768,29.086Z" transform="translate(-3.604 -25.298)" fill="#030302"/>
        </g>
      </g>
      <g id="Group_1061" data-name="Group 1061" transform="translate(2.449 0.01)">
        <g id="Group_1060" data-name="Group 1060">
          <path id="Path_642" data-name="Path 642" d="M7.522,18.291c-.089.014-.182.009-.27.022a4.287,4.287,0,0,0-2.579,1.34,3.984,3.984,0,0,0-1.066,2.4c-.021.238-.007.238.252.27a9.436,9.436,0,0,0,1.066-.261A4.083,4.083,0,0,0,7.767,18.5C7.795,18.282,7.756,18.257,7.522,18.291Z" transform="translate(-3.6 -18.279)" fill="#030302"/>
        </g>
      </g>
      <g id="Group_1063" data-name="Group 1063" transform="translate(10.187 2.134)">
        <g id="Group_1062" data-name="Group 1062">
          <path id="Path_643" data-name="Path 643" d="M20.273,23.471a1.832,1.832,0,0,0-1.544-1.822,7.161,7.161,0,0,0-3.149.11.207.207,0,0,0-.172.236c.005.224,0,.449,0,.674,0,.321.044.337.373.318.672-.037,1.344-.064,2.017-.064a.663.663,0,0,1,.712.569,1.788,1.788,0,0,1,.013.337c0,.435,0,.439-.444.434a6.3,6.3,0,0,0-1.844.19,1.534,1.534,0,0,0-1.2,1.174,2.746,2.746,0,0,0,.027,1.244A1.49,1.49,0,0,0,16.152,28a2.69,2.69,0,0,0,1.925-.132c.178-.083.348-.186.547-.293.008.06.014.09.016.121.015.282.052.318.348.318.35,0,.7,0,1.05,0,.2,0,.276-.064.275-.255C20.3,26.332,20.312,24.9,20.273,23.471Zm-1.922,3.223a2.242,2.242,0,0,1-1.175.151.493.493,0,0,1-.463-.437,2.408,2.408,0,0,1,.041-.685.546.546,0,0,1,.478-.442c.4-.048.81-.058,1.216-.072.036,0,.1.083.108.132.013.193.005.387.005.581a4.327,4.327,0,0,0,0,.451A.27.27,0,0,1,18.351,26.694Z" transform="translate(-14.973 -21.516)" fill="#030302"/>
        </g>
      </g>
      <g id="Group_1065" data-name="Group 1065" transform="translate(33.061 1.775)">
        <g id="Group_1064" data-name="Group 1064">
          <path id="Path_644" data-name="Path 644" d="M48.592,20.968v.049h.143v.4H48.8v-.4h.143v-.049Z" transform="translate(-48.592 -20.968)" fill="#030302"/>
        </g>
      </g>
      <g id="Group_1067" data-name="Group 1067" transform="translate(33.448 1.775)">
        <g id="Group_1066" data-name="Group 1066">
          <path id="Path_645" data-name="Path 645" d="M49.611,20.968H49.53l-.084.218c-.02.057-.037.106-.049.152h0c-.014-.047-.029-.1-.048-.152l-.08-.218h-.077l-.032.451h.057l.014-.194c0-.068.007-.144.009-.2h0c.014.053.032.112.054.175l.076.216h.046l.082-.22c.024-.062.042-.119.059-.171h0c0,.055,0,.133.009.195l.011.2h.061Z" transform="translate(-49.161 -20.968)" fill="#030302"/>
        </g>
      </g>
      <g id="Group_1069" data-name="Group 1069" transform="translate(20.934 2.131)">
        <g id="Group_1068" data-name="Group 1068">
          <path id="Path_646" data-name="Path 646" d="M36.447,23.9a4.848,4.848,0,0,0-.122-1.022A1.548,1.548,0,0,0,35,21.567a3.133,3.133,0,0,0-2.32.435c-.069.045-.139.085-.258.158-.005-.134-.014-.218-.015-.3-.005-.22-.045-.262-.275-.263-.365,0-.727,0-1.09,0-.214,0-.278.066-.278.271q0,2.926,0,5.851c0,.229.064.292.3.293.4,0,.8,0,1.206,0,.18,0,.261-.066.257-.244-.007-.387,0-.774,0-1.163,0-1.031,0-2.063,0-3.094,0-.085.023-.213.082-.249a2.14,2.14,0,0,1,1.458-.342.611.611,0,0,1,.554.5,3.263,3.263,0,0,1,.068.612c.008,1.226,0,2.451,0,3.677,0,.267.032.3.316.3.363,0,.727,0,1.09,0,.314,0,.35-.033.35-.329C36.453,26.422,36.462,25.159,36.447,23.9Z" transform="translate(-30.768 -21.51)" fill="#030302"/>
        </g>
      </g>
      <g id="Group_1071" data-name="Group 1071" transform="translate(27.499 2.134)">
        <g id="Group_1070" data-name="Group 1070">
          <path id="Path_647" data-name="Path 647" d="M45.723,23.825a3.784,3.784,0,0,0-.041-.58,1.794,1.794,0,0,0-1.29-1.524,4.058,4.058,0,0,0-.984-.192,8.582,8.582,0,0,0-2.349.212.263.263,0,0,0-.241.287c0,.206,0,.413,0,.619,0,.332.048.358.382.341.667-.036,1.333-.065,2-.069a.677.677,0,0,1,.744.622,4.662,4.662,0,0,1,.025.56c.007.123-.054.164-.176.16a6.461,6.461,0,0,0-.836.005,9.571,9.571,0,0,0-1.41.23,1.415,1.415,0,0,0-1.1,1.189,3.827,3.827,0,0,0-.02.78,1.732,1.732,0,0,0,1.979,1.663,2.9,2.9,0,0,0,1.523-.493.7.7,0,0,1,.112-.051c.02.029.032.036.033.048a.553.553,0,0,1,.012.094c.015.272.033.289.323.289.337,0,.674,0,1.011,0,.271,0,.3-.03.3-.287Q45.726,25.776,45.723,23.825ZM44.01,26.432a.216.216,0,0,1-.156.229,2.227,2.227,0,0,1-1.244.188.562.562,0,0,1-.494-.64c.01-.649.159-.942.977-1,.244-.018.493,0,.738,0,.138-.006.182.056.18.18-.006.181,0,.363,0,.543S44,26.262,44.01,26.432Z" transform="translate(-40.417 -21.516)" fill="#030302"/>
        </g>
      </g>
      <g id="Group_1073" data-name="Group 1073" transform="translate(16.619 2.138)">
        <g id="Group_1072" data-name="Group 1072">
          <path id="Path_648" data-name="Path 648" d="M28.009,21.755c0-.167-.077-.239-.249-.232a2.536,2.536,0,0,0-1.373.46c-.056.039-.112.075-.2.133-.007-.09-.014-.143-.014-.2-.005-.269-.054-.319-.327-.319-.352,0-.7,0-1.051,0-.32,0-.374.051-.374.358v2.588q0,1.569,0,3.132c0,.277.063.339.336.339.369,0,.74,0,1.109,0,.3,0,.346-.043.346-.34q0-2.08,0-4.164a.259.259,0,0,1,.172-.275,2.991,2.991,0,0,1,1.363-.324c.178.007.265-.058.261-.239C28,22.367,28,22.061,28.009,21.755Z" transform="translate(-24.426 -21.522)" fill="#030302"/>
        </g>
      </g>
    </g>
  </g>
</svg>
