<svg xmlns="http://www.w3.org/2000/svg" width="51" height="33" viewBox="0 0 51 33">
  <g id="Paypal" transform="translate(-705.5 -2362.5)">
    <rect id="Rectangle_3201" data-name="Rectangle 3201" width="50" height="32" rx="4" transform="translate(706 2363)" fill="#fff" stroke="#f7f7f7" stroke-width="1"/>
    <g id="Group_1313" data-name="Group 1313" transform="translate(715.21 2374.999)">
      <path id="Path_717" data-name="Path 717" d="M32.723,15.44H31.407a.211.211,0,0,0-.224.187l-1.053,7.227a.229.229,0,0,0,.05.187.222.222,0,0,0,.174.08h1.118a.37.37,0,0,0,.368-.32l1.105-7.107a.229.229,0,0,0-.055-.178A.222.222,0,0,0,32.723,15.44Z" transform="translate(1.263 -15.44)" fill="#179bd7"/>
      <g id="Group_1309" data-name="Group 1309" transform="translate(12.59 0.03)">
        <path id="Path_714" data-name="Path 714" d="M21.816,17.37H20.5a.367.367,0,0,0-.316.173l-1.8,2.667-.763-2.6a.4.4,0,0,0-.368-.28H15.934a.223.223,0,0,0-.185.1.229.229,0,0,0-.026.209l1.434,4.32L15.842,23.9a.229.229,0,0,0-.018.238.223.223,0,0,0,.2.122h1.316a.354.354,0,0,0,.316-.16L22,17.69a.229.229,0,0,0-.01-.208A.223.223,0,0,0,21.816,17.37Z" transform="translate(-15.709 -14.839)" fill="#253b80"/>
        <path id="Path_715" data-name="Path 715" d="M26.635,16.179a2.506,2.506,0,0,0-1.987-.707H21.924a.357.357,0,0,0-.355.333l-1.118,7.04a.242.242,0,0,0,.059.187.235.235,0,0,0,.178.079h1.395a.265.265,0,0,0,.25-.24l.316-2.013a.383.383,0,0,1,.368-.333h.868a2.778,2.778,0,0,0,2.11-.662,2.854,2.854,0,0,0,.982-2.005,2.2,2.2,0,0,0-.342-1.68ZM24.95,18.073c-.132.987-.882.987-1.605.987h-.408l.289-1.853a.214.214,0,0,1,.071-.147.209.209,0,0,1,.153-.053h.2c.487,0,.947,0,1.184.28a.917.917,0,0,1,.118.747Z" transform="translate(-14.212 -15.462)" fill="#179bd7"/>
        <path id="Path_716" data-name="Path 716" d="M31.281,17.393H29.966a.237.237,0,0,0-.237.187v.387l-.092-.147a1.815,1.815,0,0,0-1.526-.547A3.015,3.015,0,0,0,25.2,19.94a2.464,2.464,0,0,0,.487,2.04,1.961,1.961,0,0,0,1.632.667,2.471,2.471,0,0,0,1.8-.76v.387a.229.229,0,0,0,.055.178.222.222,0,0,0,.168.076h1.171a.37.37,0,0,0,.368-.32l.645-4.547a.229.229,0,0,0-.058-.2A.222.222,0,0,0,31.281,17.393Zm-3.276,3.853a1.124,1.124,0,0,1-.882-.347,1.2,1.2,0,0,1-.2-.947,1.468,1.468,0,0,1,1.447-1.333,1.033,1.033,0,0,1,.891.377,1.064,1.064,0,0,1,.2.957,1.441,1.441,0,0,1-1.461,1.293Z" transform="translate(-12.727 -14.862)" fill="#179bd7"/>
      </g>
      <g id="Group_1308" data-name="Group 1308" transform="translate(0 0.029)">
        <path id="Path_712" data-name="Path 712" d="M11.9,16.18a2.493,2.493,0,0,0-1.987-.707H7.283a.4.4,0,0,0-.382.333L5.73,22.846a.242.242,0,0,0,.059.187.235.235,0,0,0,.178.079H7.283a.4.4,0,0,0,.355-.267l.289-1.92a.37.37,0,0,1,.368-.333h.855a2.752,2.752,0,0,0,2.118-.652,2.827,2.827,0,0,0,.974-2.014A2.1,2.1,0,0,0,11.9,16.18ZM10.23,18.033c-.145.987-.895.987-1.605.987H8.217l.276-1.853a.238.238,0,0,1,.224-.2H8.9c.487,0,.961,0,1.184.28A.916.916,0,0,1,10.23,18.033Z" transform="translate(-5.729 -15.461)" fill="#253b80"/>
        <path id="Path_713" data-name="Path 713" d="M16.563,17.393H15.247a.264.264,0,0,0-.237.187v.387l-.092-.147a1.854,1.854,0,0,0-1.539-.547,3.015,3.015,0,0,0-2.908,2.667,2.572,2.572,0,0,0,.487,2.04,2,2,0,0,0,1.645.667,2.432,2.432,0,0,0,1.789-.76v.387a.239.239,0,0,0,.211.253h1.171a.37.37,0,0,0,.382-.32l.7-4.547a.215.215,0,0,0-.055-.233A.208.208,0,0,0,16.563,17.393Zm-3.289,3.853A1.111,1.111,0,0,1,12.4,20.9a1.253,1.253,0,0,1-.211-.947,1.494,1.494,0,0,1,1.461-1.333,1.085,1.085,0,0,1,.868.373,1.064,1.064,0,0,1,.224.933A1.467,1.467,0,0,1,13.273,21.246Z" transform="translate(-4.245 -14.862)" fill="#253b80"/>
      </g>
    </g>
  </g>
</svg>
