<svg xmlns="http://www.w3.org/2000/svg" xmlns:xlink="http://www.w3.org/1999/xlink" width="51" height="33" viewBox="0 0 51 33">
  <defs>
    <clipPath id="clip-path">
      <path id="Path_652" data-name="Path 652" d="M1830,6h6.439v6.2H1830Zm0,0" transform="translate(-1830 -6)" fill="#e6883c"/>
    </clipPath>
    <clipPath id="clip-path-2">
      <path id="Path_655" data-name="Path 655" d="M476,0h6.21V6.384H476Zm0,0" transform="translate(-476)" fill="#e6883c"/>
    </clipPath>
    <clipPath id="clip-path-3">
      <path id="Path_658" data-name="Path 658" d="M1122,0h6.227V6.384H1122Zm0,0" transform="translate(-1122)" fill="#e6883c"/>
    </clipPath>
    <clipPath id="clip-path-4">
      <path id="Path_660" data-name="Path 660" d="M1830,5h6.439v6.2H1830Zm0,0" transform="translate(-1830 -5)" fill="#e6883c"/>
    </clipPath>
  </defs>
  <g id="Sofort" transform="translate(-1420.007 -805.508)">
    <rect id="Rectangle_3200" data-name="Rectangle 3200" width="50" height="32" rx="4" transform="translate(1420.507 806.008)" fill="#fff" stroke="#f7f7f7" stroke-width="1"/>
    <g id="surface1" transform="translate(1427.175 818.816)">
      <path id="Path_649" data-name="Path 649" d="M10.135,6.016H6.442a3.7,3.7,0,0,0-1.655.247,2.75,2.75,0,0,0-1.3,1.73,1.917,1.917,0,0,0-.119.554.8.8,0,0,0,.087.413,1.217,1.217,0,0,0,.361.393,1.805,1.805,0,0,0,.548.266l.243.067.375.106a.809.809,0,0,1,.173.07.345.345,0,0,1,.137.133.289.289,0,0,1,.033.128.4.4,0,0,1-.026.148.409.409,0,0,1-.255.274,1.951,1.951,0,0,1-.641.072H.6L0,12.2H4.068a4.607,4.607,0,0,0,1.756-.274,2.618,2.618,0,0,0,1.591-1.921,1.259,1.259,0,0,0-.1-1.013A1.508,1.508,0,0,0,6.4,8.417l-.217-.06-.32-.088a.429.429,0,0,1-.253-.175.333.333,0,0,1-.037-.278.409.409,0,0,1,.211-.243.884.884,0,0,1,.412-.088H8.559c.017-.023.032-.048.049-.072a5.139,5.139,0,0,1,1.528-1.4" transform="translate(0 -5.92)" fill="#e6883c"/>
      <path id="Path_650" data-name="Path 650" d="M10.279,5.578H6.586a3.7,3.7,0,0,0-1.655.247,2.749,2.749,0,0,0-1.3,1.73,1.893,1.893,0,0,0-.119.554.8.8,0,0,0,.087.413,1.209,1.209,0,0,0,.36.393,1.808,1.808,0,0,0,.548.266l.244.067.374.105a.854.854,0,0,1,.173.07.347.347,0,0,1,.137.134.285.285,0,0,1,.033.128.393.393,0,0,1-.026.148.408.408,0,0,1-.255.274,1.948,1.948,0,0,1-.641.072H.745l-.6,1.586H4.213a4.6,4.6,0,0,0,1.755-.274A2.618,2.618,0,0,0,7.559,9.569a1.257,1.257,0,0,0-.1-1.012,1.506,1.506,0,0,0-.918-.578l-.217-.06-.32-.088a.429.429,0,0,1-.253-.175.333.333,0,0,1-.037-.278.41.41,0,0,1,.211-.243.883.883,0,0,1,.411-.088H8.7c.017-.023.032-.048.049-.072a5.138,5.138,0,0,1,1.527-1.4" transform="translate(-0.142 -5.49)" fill="#e6883c"/>
      <g id="Group_1074" data-name="Group 1074" transform="translate(30.225 0.095)" clip-path="url(#clip-path)">
        <path id="Path_651" data-name="Path 651" d="M1830.638,6.242a1.521,1.521,0,0,1,.593,1.469h1.186l-1.788,4.719h1.786l1.789-4.719h2.3l.557-1.469h-6.418" transform="translate(-1830.619 -6.238)" fill="#e6883c"/>
      </g>
      <path id="Path_653" data-name="Path 653" d="M1446.347,8.216a1.146,1.146,0,0,1-1.188.8h-.341l.578-1.5h.329c.6,0,.825.169.622.7m1.734-1.367a2.152,2.152,0,0,0-1.829-.607h-2.169l-2.345,6.186h1.992l.853-2.177c.041.089.544,2.177.544,2.177h2.094a18.692,18.692,0,0,0-.661-2.154,3.293,3.293,0,0,0-.247-.487,2.9,2.9,0,0,0,1.8-1.583,1.385,1.385,0,0,0-.036-1.356" transform="translate(-1417.926 -6.143)" fill="#e6883c"/>
      <g id="Group_1075" data-name="Group 1075" transform="translate(7.862)" clip-path="url(#clip-path-2)">
        <path id="Path_654" data-name="Path 654" d="M480.335,3.61c-.552,1.451-.953,1.817-1.556,1.817h0c-.587,0-.793-.358-.244-1.8.411-1.078.942-1.768,1.586-1.768h0c.611,0,.752.341.215,1.753m1.894-2.485A1.9,1.9,0,0,0,480.59.457a3.483,3.483,0,0,0-1.444.317,4.466,4.466,0,0,0-1.727,1.448,6.207,6.207,0,0,0-.793,1.473,2.582,2.582,0,0,0,.014,2.446,1.929,1.929,0,0,0,1.679.693h0c1.77,0,3.091-1.114,3.928-3.311a2.685,2.685,0,0,0-.021-2.4" transform="translate(-476.326 -0.45)" fill="#e6883c"/>
      </g>
      <path id="Path_656" data-name="Path 656" d="M799.6,6.016h-3.764a2.212,2.212,0,0,0-2.205,1.469L791.844,12.2H793.8l.919-2.425h1.731l.492-1.3h-1.725l.278-.752a.416.416,0,0,1,.4-.242h2.041c.017-.023.032-.048.049-.072a5.438,5.438,0,0,1,1.616-1.4" transform="translate(-778.766 -5.92)" fill="#e6883c"/>
      <g id="Group_1076" data-name="Group 1076" transform="translate(18.531)" clip-path="url(#clip-path-3)">
        <path id="Path_657" data-name="Path 657" d="M1126.852,3.61c-.552,1.451-.953,1.817-1.555,1.817h0c-.588,0-.793-.358-.243-1.8.41-1.078.942-1.768,1.585-1.768h0c.612,0,.752.341.214,1.753m1.895-2.485a1.9,1.9,0,0,0-1.64-.668,3.481,3.481,0,0,0-1.443.317,4.468,4.468,0,0,0-1.727,1.448,6.2,6.2,0,0,0-.793,1.473,2.58,2.58,0,0,0,.013,2.446,1.93,1.93,0,0,0,1.679.693h0c1.769,0,3.091-1.114,3.927-3.311a2.683,2.683,0,0,0-.02-2.4" transform="translate(-1122.835 -0.45)" fill="#e6883c"/>
      </g>
      <g id="Group_1077" data-name="Group 1077" transform="translate(30.225 0.079)" clip-path="url(#clip-path-4)">
        <path id="Path_659" data-name="Path 659" d="M1830.779,5.809a1.522,1.522,0,0,1,.593,1.469h1.186L1830.77,12h1.786l1.788-4.719h2.3l.557-1.469h-6.418" transform="translate(-1830.757 -5.796)" fill="#e6883c"/>
      </g>
      <path id="Path_661" data-name="Path 661" d="M1446.469,7.782a1.147,1.147,0,0,1-1.188.8h-.341l.578-1.5h.329c.6,0,.826.169.622.7m1.734-1.367a2.152,2.152,0,0,0-1.829-.607h-2.168l-2.346,6.186h1.992l.853-2.177c.041.089.544,2.177.544,2.177h2.1a18.818,18.818,0,0,0-.661-2.154,3.354,3.354,0,0,0-.248-.487,2.9,2.9,0,0,0,1.8-1.583,1.385,1.385,0,0,0-.036-1.356" transform="translate(-1418.046 -5.716)" fill="#e6883c"/>
      <g id="Group_1078" data-name="Group 1078" transform="translate(7.862)" clip-path="url(#clip-path-2)">
        <path id="Path_662" data-name="Path 662" d="M480.46,3.153c-.552,1.451-.953,1.816-1.556,1.816h0c-.587,0-.793-.358-.243-1.8.41-1.078.942-1.768,1.586-1.768h0c.612,0,.752.341.215,1.753M482.355.668A1.9,1.9,0,0,0,480.715,0a3.487,3.487,0,0,0-1.444.317,4.466,4.466,0,0,0-1.727,1.448,6.2,6.2,0,0,0-.793,1.473,2.582,2.582,0,0,0,.014,2.446,1.932,1.932,0,0,0,1.679.693h0c1.77,0,3.091-1.114,3.927-3.311a2.684,2.684,0,0,0-.02-2.4" transform="translate(-476.45)" fill="#e6883c"/>
      </g>
      <path id="Path_664" data-name="Path 664" d="M799.719,5.578h-3.764a2.212,2.212,0,0,0-2.206,1.469l-1.788,4.718h1.959l.919-2.425h1.731l.492-1.3h-1.725l.278-.752a.415.415,0,0,1,.4-.242h2.042c.017-.023.032-.048.048-.072a5.438,5.438,0,0,1,1.617-1.4" transform="translate(-778.881 -5.49)" fill="#e6883c"/>
      <g id="Group_1079" data-name="Group 1079" transform="translate(18.531)" clip-path="url(#clip-path-3)">
        <path id="Path_665" data-name="Path 665" d="M1126.991,3.153c-.552,1.451-.953,1.816-1.555,1.816h0c-.588,0-.793-.358-.244-1.8.411-1.078.943-1.768,1.585-1.768h0c.611,0,.752.341.214,1.753m1.894-2.485a1.9,1.9,0,0,0-1.64-.668,3.487,3.487,0,0,0-1.444.317,4.467,4.467,0,0,0-1.727,1.448,6.211,6.211,0,0,0-.793,1.473,2.58,2.58,0,0,0,.014,2.446,1.93,1.93,0,0,0,1.679.693h0c1.77,0,3.091-1.114,3.927-3.311a2.681,2.681,0,0,0-.02-2.4" transform="translate(-1122.972)" fill="#e6883c"/>
      </g>
    </g>
  </g>
</svg>
