<svg xmlns="http://www.w3.org/2000/svg" width="51" height="33" viewBox="0 0 51 33">
  <g id="Visa" transform="translate(-503.95 -2283.94)">
    <rect id="Rectangle_3202" data-name="Rectangle 3202" width="50" height="32" rx="4" transform="translate(504.45 2284.44)" fill="#fff" stroke="#f7f7f7" stroke-width="1"/>
    <path id="Path_718" data-name="Path 718" d="M18.384,15.6l-3.776,9.187H12.121L10.292,17.52a1,1,0,0,0-.553-.813A10.028,10.028,0,0,0,7.45,15.92v-.267H11.4a1.11,1.11,0,0,1,1.079.947l.974,5.333,2.421-6.253Zm9.645,6.187c0-2.413-3.289-2.547-3.263-3.64,0-.32.316-.68.987-.76a4.318,4.318,0,0,1,2.3.4l.408-1.947a6.411,6.411,0,0,0-2.184-.4c-2.3,0-3.947,1.24-3.947,3.04,0,1.333,1.158,2.053,2.039,2.493s1.211.747,1.211,1.147c0,.613-.724.88-1.395.893a4.764,4.764,0,0,1-2.395-.573l-.461,2.013a7.035,7.035,0,0,0,2.632.48c2.447,0,4.039-1.227,4.053-3.147m6.079,3h2.145L34.371,15.6H32.4a1.079,1.079,0,0,0-1,.68l-3.487,8.507h2.447l.474-1.333h2.987Zm-2.632-3.253,1.237-3.44.737,3.427ZM21.674,15.6l-1.921,9.187H17.463L19.384,15.6Z" transform="translate(507.605 2280.253)" fill="#122a96"/>
  </g>
</svg>
